<?xml version="1.0" encoding="UTF-8"?><svg xmlns="http://www.w3.org/2000/svg" viewBox="0 0 2351.34 613.68"><defs><style>.cls-1{fill:none;}.cls-2{fill:#fff;}.cls-3{fill:#fec947;}.cls-4{fill:#d8872b;}.cls-5{opacity:.4;}</style></defs><g id="Layer_1"><path class="cls-2" d="m119.9,333.89c-1.56-3.13-3.65-20.84-3.65-37.51,0-101.08,77.63-217.27,156.83-234.98,5.21-1.04,9.38-2.09,18.24,0,39.08,9.38,59.92,15.63,66.69,17.71,43.25,13.02,42.2,38.55,41.68,50.02-1.56,48.46-32.3,88.05-57.83,88.05-19.28,0-25.01-1.04-25.01-4.69,0-12.51,20.84-25.53,27.61-60.44,3.65-18.24,2.08-44.81-2.6-56.79-124,8.86-171.94,136.51-171.94,219.87s44.29,98.47,88.57,98.47c71.9,0,155.79-48.98,186.53-122.44,9.9,3.13,13.55,5.21,11.98,20.32-7.29,78.15-101.6,130.26-197.99,130.26-76.59,0-107.33-32.82-139.11-107.85Z"/><path class="cls-2" d="m709.18,302.1c-11.46,20.84-48.98,36.47-87.01,40.64-18.24,51.06-59.4,94.83-116.71,94.83-66.69,0-93.78-58.88-93.78-113.58,0-51.06,19.28-102.64,47.41-134.95,7.29-8.34,18.76-10.94,31.26-10.94,9.38,0,19.8,3.13,25.53,8.34,14.07-13.55,31.78-22.4,48.97-22.4,37.51,0,68.26,47.41,68.26,118.27,0,7.29-.52,15.11-1.56,22.4,25.01-6.77,52.62-21.36,73.99-40.64,1.56,0,18.76,20.84,3.65,38.03Zm-143.8,36.99c-42.2-10.42-68.78-40.12-77.11-88.05-.52-3.13-.52-6.77-.52-9.9-16.67,30.74-22.93,66.69-22.93,96.91,0,41.68,13.55,66.69,38.04,66.69,26.57,0,49.5-28.66,62.52-65.65Zm-50.02-102.12c0,38.03,23.44,62,58.35,70.34,1.56-10.42,2.6-20.84,2.6-31.26,0-47.93-15.63-74.51-35.95-74.51-17.72,0-25.01,10.42-25.01,35.43Z"/><path class="cls-2" d="m675.83,374.01c5.21-27.61,45.33-283.44,47.93-305.84,1.56-14.59-5.21-17.19-7.29-24.49-1.04-3.65-.52-7.29,5.73-8.86,32.82-8.34,63.57-13.55,63.57,3.13,0,10.42-49.5,315.74-54.71,349.61-1.04,9.38,1.04,11.46,8.34,11.46,27.62,0,73.99-54.71,94.83-87.53,27.09,5.73,27.09,22.4,3.65,51.06-36.99,45.33-75.03,72.94-104.73,72.94-25.01,0-62-38.55-57.31-61.48Z"/><path class="cls-2" d="m815.46,374.01c5.21-27.61,45.33-283.44,47.93-305.84,1.56-14.59-5.21-17.19-7.29-24.49-1.04-3.65-.52-7.29,5.73-8.86,32.82-8.34,63.57-13.55,63.57,3.13,0,10.42-49.5,315.74-54.71,349.61-1.04,9.38,1.04,11.46,8.34,11.46,27.62,0,73.99-54.71,94.83-87.53,27.09,5.73,27.09,22.4,3.65,51.06-36.99,45.33-75.03,72.94-104.73,72.94-25.01,0-62-38.55-57.31-61.48Z"/><path class="cls-2" d="m1239.57,311.48c-8.86,59.4-78.15,130.26-182.88,130.26-50.02,0-89.1-29.7-109.94-76.59-1.56-3.65-2.09-9.38-2.09-17.19,0-62.52,50.02-152.14,110.46-182.36,5.21-2.6,11.98-1.56,17.71,0,25.01,6.77,58.35,15.11,67.21,18.76,18.76,6.25,30.74,15.11,30.74,46.37,0,82.32-102.12,122.44-166.21,122.44h-4.69c-1.04,7.29-1.56,14.07-1.56,20.84,0,23.45,13.02,39.6,38.03,39.6,92.74,0,163.6-63.57,190.17-122.44,9.9,3.13,15.11,5.21,13.03,20.32Zm-235.5,21.36c58.88-16.67,114.63-42.2,114.63-101.08,0-15.63-1.56-21.88-5.21-32.3-48.98,5.73-94.31,71.9-109.42,133.38Z"/><path class="cls-2" d="m1662.64,520.41c-66.69-.52-214.14-5.73-329.81-8.34-38.56,64.61-89.1,101.6-156.83,101.6-58.88,0-82.32-28.66-82.32-55.75,0-35.43,36.47-72.42,113.06-78.15,18.76-1.56,55.23-2.08,100.56-2.61,18.76-37.51,33.35-84.41,44.81-142.76-21.36,51.58-61.48,104.21-94.83,104.21-44.29,0-74.51-35.43-74.51-67.21,0-76.59,56.79-160.48,110.98-199.03,13.55-8.86,29.18-9.38,68.25-9.38,10.94,0,21.36,2.08,21.36,9.9,0,2.6-2.08,6.77-5.73,8.86-75.03,44.81-142.76,119.31-142.76,204.24,0,6.25,2.08,10.42,9.38,10.42,41.16,0,106.29-72.94,125.57-180.28,1.04-5.21,2.61-10.94,11.98-10.94h21.36c14.07,0,19.28,9.38,17.19,22.4-17.19,98.99-38.55,183.92-68.77,248.53,95.35-1.56,215.7-4.17,303.76-11.98,8.86,11.46,12.5,20.84,19.28,37.51,4.17,9.9-1.56,18.76-11.98,18.76Zm-375.14-8.86c-43.77-1.04-79.72-.52-99.52.52-36.47,2.08-65.13,13.55-65.13,39.08,0,15.11,10.94,28.66,44.81,28.66,47.93,0,88.05-22.4,119.84-68.25Z"/><path class="cls-2" d="m1455.79,374.01c4.17-30.22,28.14-143.28,30.74-167.25,1.56-14.59-5.21-17.19-7.29-24.49-1.04-3.65-.52-7.29,5.73-8.86,32.82-7.82,58.88-13.03,63.56,3.13,2.61,12.51-6.77,44.81-16.67,96.91-8.34,42.72-10.94,58.35-20.84,114.11-1.04,9.38,1.04,11.46,8.34,11.46,27.61,0,73.99-54.71,94.83-87.53,27.09,5.73,27.09,22.4,3.65,51.06-36.99,45.33-75.03,72.94-104.73,72.94-25.01,0-62-38.55-57.31-61.48Zm44.29-313.66c.52-8.86,2.08-14.59,5.21-20.84,30.22-4.69,61.48,2.6,61.48,29.18,0,17.2-12.51,42.73-33.35,42.73s-35.43-18.24-33.35-51.06Z"/><path class="cls-2" d="m1581.87,371.4c0-76.59,56.27-160.48,110.98-199.03,13.03-9.38,29.18-9.38,68.25-9.38,10.94,0,21.36,2.08,21.36,9.9,0,2.6-2.08,6.77-5.73,8.86-75.03,44.81-142.76,119.31-142.76,204.24,0,6.25,2.08,10.42,9.38,10.42,41.16,0,106.81-73.46,128.17-180.28,1.04-5.21,2.6-10.94,11.98-10.94h21.36c14.07,0,19.28,8.86,17.19,22.4-3.13,22.92-24.49,130.26-26.05,165.68-.52,8.34,1.56,10.42,9.38,10.42,35.95,0,81.28-59.4,102.12-92.22,27.09,5.73,27.61,21.88,4.17,50.54-36.99,45.33-71.9,70.34-93.26,70.34-34.91,0-62-20.32-66.17-42.2-2.08-11.46-2.08-41.68-1.04-55.75-20.84,43.77-65.13,104.21-100.04,104.21-41.16,0-69.3-35.43-69.3-67.21Z"/><path class="cls-2" d="m2281.59,66.08c-2.09,19.8-20.32,51.58-29.7,52.1-90.14,4.69-174.02,2.09-256.34,3.65-16.67,92.74-42.72,231.86-46.37,255.3-1.56,17.72,2.6,21.88,18.76,21.88,27.61,0,78.68-15.11,117.23-86.49,27.09,5.73,27.61,18.76,5.21,48.98-42.2,57.83-99,73.98-128.69,73.98s-73.46-38.03-67.73-61.48c6.25-24.49,31.26-168.29,44.81-250.09-22.4,1.04-44.81,2.6-67.21,4.69-21.36,2.08-42.72,4.69-60.44,16.67-10.94-12.51-12.5-23.45-12.5-28.66,0-10.94,8.86-17.71,27.61-17.71,38.04,0,77.63-1.56,117.23-3.65l4.17-26.57c2.6-24.49,23.97-39.6,62-30.22,0,2.6-3.65,23.45-8.86,53.66,49.5-3.13,98.47-7.29,146.93-9.9,43.24-2.6,85.97-10.42,126.09-23.97,3.65-1.04,8.34,2.08,7.82,7.82Z"/><path class="cls-2" d="m2350.88,311.48c-8.86,59.4-78.15,130.26-182.88,130.26-50.02,0-89.1-29.7-109.94-76.59-1.56-3.65-2.09-9.38-2.09-17.19,0-62.52,50.02-152.14,110.46-182.36,5.21-2.6,11.98-1.56,17.71,0,25.01,6.77,58.35,15.11,67.21,18.76,18.76,6.25,30.74,15.11,30.74,46.37,0,82.32-102.12,122.44-166.21,122.44h-4.69c-1.04,7.29-1.56,14.07-1.56,20.84,0,23.45,13.02,39.6,38.03,39.6,92.74,0,163.6-63.57,190.17-122.44,9.9,3.13,15.11,5.21,13.03,20.32Zm-235.5,21.36c58.88-16.67,114.63-42.2,114.63-101.08,0-15.63-1.56-21.88-5.21-32.3-48.98,5.73-94.31,71.9-109.42,133.38Z"/></g><g id="Layer_2"><polygon class="cls-4" points="112.05 174.39 137.63 199.37 334.04 72.19 306.2 59.14 112.05 174.39"/><path class="cls-3" d="m36.71,203.74c12.79-25.77,29.53-55.03,51.47-85.77,19.81-27.76,39.94-51.22,58.54-70.66.25-.35.71-.91,1.46-1.4.57-.37,1.21-.63,1.9-.77,51.18-16.59,109.61-31.02,174.64-39.76,16.38-2.2,32.38-3.94,47.97-5.27,2.13-.43,4.32.42,5.53,2.14,1.13,1.61,1.35,3.82.02,5.74-19.82,20.43-41.83,46.07-63.16,77.32-19.6,28.7-34.39,55.94-45.59,79.83-.25.36-.71.93-1.47,1.43-.58.37-1.23.64-1.93.78-56.09,3.32-119.01,12.52-185.76,32.1-13.12,3.85-25.83,7.94-38.11,12.2-2.13.42-4.32-.44-5.5-7.92Z"/><path class="cls-2" d="m180.09,95.6c-16.01.69-31.01,10.04-43.52,19.34s-25.14,19.89-35.52,31.76c-5.35,6.11-10.17,12.75-13.9,19.98-3.92,7.6-7.22,15.89-7.29,24.56-.06,8.12,2.38,15.94,4.19,23.77,1.79,7.75,2.19,15.14-.15,22.83-4.81,15.73-18.47,25.49-32.11,33.26-4.99,2.84-.5,10.56,4.5,7.7,12.46-7.1,24.84-15.74,31.96-28.57,3.84-6.92,6.26-14.94,6.34-22.89s-2.26-15.77-4.08-23.52-2.48-15.14.13-22.78c2.57-7.51,6.41-14.52,11.03-20.95,9.2-12.79,21.62-23.13,33.73-33.03,6.54-5.35,13.5-10.25,20.88-14.39,7.26-4.07,15.36-7.79,23.81-8.15,5.72-.25,5.75-9.17,0-8.92h0Z"/><ellipse class="cls-4" cx="186.38" cy="94.15" rx="13.31" ry="9.74" transform="translate(-19.61 128.32) rotate(-36.22)"/><path class="cls-3" d="m9.18,307.41c-3.63-7.25-6.58-14.71-8.16-22.68-.33-1.68-.65-3.38-.88-5.08-.12-.85.24-4.39-.14-4.89,1.77,2.36,5.24,2.06,7.84,1.92,5.14-.28,10.12-1.37,15.18-2.23,6.91-1.17,17.56-5.17,23.78-.57,2.87,2.12,2.85,5.93,1.74,9-2.05,5.72-8.66,8.74-13.56,11.61-5.68,3.32-11.56,6.28-17.51,9.07-2.78,1.3-5.58,2.78-8.31,3.89"/><path class="cls-1" d="m6.79,298.71c.98.26,2.13.12,3.14.1,2.01-.02,4.05-.3,6.03-.63,5.15-.86,10.5-2.77,15.12-5.18,4.87-2.54,10.2-5.26,13.19-10.08,1.57-2.52,2.77-5.84,1.39-8.77-.31-.67-.97-1.15-1.49-1.7-6.3-2.2-15.11.94-21.11,1.96-5.06.86-10.04,1.95-15.18,2.23-2.6.14-6.08.44-7.84-1.92.38.51.02,4.04.14,4.89.24,1.7.55,3.4.88,5.08.9,4.55,2.26,8.92,3.92,13.18.59.32,1.18.66,1.81.83Z"/><g class="cls-5"><path class="cls-4" d="m44.12,276.86c1.38,2.93,1.72,3.55.16,6.06-2.99,4.82-8.32,7.54-13.19,10.08-4.62,2.41-9.97,4.32-15.12,5.18-1.98.33-4.02.61-6.03.63-1.02.01-2.17.15-3.14-.1-.63-.16-1.21-.51-1.81-.83,1.25,3.22,2.68,6.38,4.24,9.5v.04c2.71-1.1,5.52-2.58,8.29-3.89,5.95-2.8,11.83-5.75,17.51-9.07,4.9-2.87,11.51-5.89,13.56-11.61,1.1-3.07,1.13-6.88-1.74-9-.82-.61-1.72-1.06-2.68-1.39-.06.57-.37,3.73-.06,4.4Z"/></g><ellipse class="cls-3" cx="53.61" cy="274.94" rx="7.18" ry="8.15" transform="translate(-59.01 18.46) rotate(-12.67)"/></g></svg>